<svg width="1728" height="1080" viewBox="0 0 1728 1080" fill="none" xmlns="http://www.w3.org/2000/svg">
<g clip-path="url(#clip0_3483_5307)">
<rect width="1728" height="1117" transform="translate(0 -37)" fill="white"/>
<g filter="url(#filter0_f_3483_5307)">
<path fill-rule="evenodd" clip-rule="evenodd" d="M880.8 492.153C945.812 510.306 965.444 593.248 1018.49 634.99C1064.21 670.969 1152.38 662.045 1167.93 718.108C1184.32 777.217 1093.11 817.816 1086.08 878.751C1078.7 942.795 1155.68 1005.25 1128.1 1063.52C1102.13 1118.36 1025.38 1133.05 964.73 1135.08C909.682 1136.92 869.066 1083.44 814.802 1074C749.543 1062.65 665.823 1123.06 620.111 1075.12C575.274 1028.1 621.723 948.429 634.273 884.681C643.141 839.641 675.985 804.09 682.42 758.639C692.786 685.42 638.735 600.603 682.893 541.286C724.32 485.636 813.979 473.496 880.8 492.153Z" fill="#FBE1E1"/>
</g>
<g filter="url(#filter1_f_3483_5307)">
<path fill-rule="evenodd" clip-rule="evenodd" d="M1397.83 526.648C1457.9 509.201 1523.31 534.908 1577.34 566.443C1632.76 598.791 1679.79 646.489 1704.56 705.686C1728.94 763.946 1737.38 832.774 1713.19 891.111C1690.49 945.858 1627.67 968.066 1580.74 1004.27C1543.75 1032.8 1506.78 1056.71 1466.92 1081.08C1411.56 1114.93 1358.86 1204.78 1301.08 1175.25C1237.65 1142.83 1287.7 1033.57 1252.66 971.559C1228.2 928.279 1157.29 928.378 1136.13 883.394C1113.47 835.217 1109.99 772.457 1137.56 726.909C1164.91 681.723 1232.93 686.524 1274.79 654.315C1322.6 617.528 1339.9 543.473 1397.83 526.648Z" fill="#F1B9B9"/>
</g>
<g filter="url(#filter2_f_3483_5307)">
<path fill-rule="evenodd" clip-rule="evenodd" d="M347.16 428.039C434.982 429.663 514.145 480.931 570.127 548.617C621.19 610.355 627.005 691.581 631.301 771.584C635.962 858.384 649.019 951.414 595.432 1019.86C537.015 1094.47 441.553 1142.83 347.16 1134.49C257.64 1126.59 201.277 1044.53 139.182 979.562C79.3008 916.913 4.88822 858.125 0.280655 771.584C-4.48358 682.1 52.1212 603.273 115.791 540.215C179.098 477.516 258.074 426.391 347.16 428.039Z" fill="#FFB5B0"/>
</g>
<g filter="url(#filter3_f_3483_5307)">
<path fill-rule="evenodd" clip-rule="evenodd" d="M428.461 -29.5006C516.089 -36.9217 616.45 -52.8495 679.369 8.59025C742.57 70.3054 731.39 171.438 724.418 259.498C718.149 338.677 698.698 417.409 642.555 473.591C586.393 529.793 507.878 553.264 428.461 555.664C346.167 558.151 262.652 541.529 201.026 486.934C135.845 429.19 91.0399 346.521 94.1526 259.498C97.183 174.775 152.598 103.213 216.734 47.7701C275.819 -3.30676 350.638 -22.9099 428.461 -29.5006Z" fill="#FFFAF9"/>
</g>
<g filter="url(#filter4_f_3483_5307)">
<path fill-rule="evenodd" clip-rule="evenodd" d="M953.169 33.7593C1008.7 40.5039 1063.47 52.933 1109.5 84.72C1154.59 115.854 1184.74 162.047 1209.64 210.853C1235.5 261.511 1260.59 314.826 1255.85 371.501C1250.99 429.788 1227.77 489.426 1183.22 527.318C1140.54 563.607 1079.83 571.397 1023.87 568.782C977.392 566.61 944.106 523.478 898.545 514.014C846.611 503.226 783.045 544.785 742.681 510.371C703.694 477.132 718.604 412.768 719.717 361.547C720.679 317.255 741.704 278.342 748.672 234.591C758.962 169.985 723.689 89.3715 770.365 43.5325C814.802 -0.108362 891.34 26.2503 953.169 33.7593Z" fill="#F1B9B9"/>
</g>
<g filter="url(#filter5_f_3483_5307)">
<path fill-rule="evenodd" clip-rule="evenodd" d="M1364.55 82.0784C1394.53 99.6866 1406.46 137.647 1434.42 158.312C1454.68 173.287 1481.75 174.146 1504.3 185.375C1531.07 198.704 1561.69 207.933 1580.61 231.096C1599.74 254.531 1613.4 285.708 1610.85 315.857C1608.26 346.57 1565.97 365.369 1566.66 396.185C1567.71 443.524 1624.97 481.844 1615.59 528.256C1607.97 565.938 1553.91 572.819 1525.67 598.903C1491.94 630.064 1477.5 694.242 1431.73 698.077C1383.4 702.127 1358.89 631.142 1312.57 616.76C1272.76 604.401 1227.37 638.263 1188.73 622.628C1150.96 607.34 1108.11 574.155 1106.66 533.429C1104.74 479.54 1174.54 444.639 1180.5 391.046C1183.82 361.239 1146.43 342.567 1130.73 317.013C1103.55 272.775 1051.98 235.466 1053.02 183.555C1053.86 140.966 1099.67 110.563 1135.29 87.1995C1169.96 64.4584 1212.05 52.9721 1253.51 52.0461C1292.17 51.1825 1331.2 62.4916 1364.55 82.0784Z" fill="#FBE1E1"/>
</g>
</g>
<defs>
<filter id="filter0_f_3483_5307" x="101" y="-16" width="1568.9" height="1651.12" filterUnits="userSpaceOnUse" color-interpolation-filters="sRGB">
<feFlood flood-opacity="0" result="BackgroundImageFix"/>
<feBlend mode="normal" in="SourceGraphic" in2="BackgroundImageFix" result="shape"/>
<feGaussianBlur stdDeviation="250" result="effect1_foregroundBlur_3483_5307"/>
</filter>
<filter id="filter1_f_3483_5307" x="618" y="21" width="1609.64" height="1660.12" filterUnits="userSpaceOnUse" color-interpolation-filters="sRGB">
<feFlood flood-opacity="0" result="BackgroundImageFix"/>
<feBlend mode="normal" in="SourceGraphic" in2="BackgroundImageFix" result="shape"/>
<feGaussianBlur stdDeviation="250" result="effect1_foregroundBlur_3483_5307"/>
</filter>
<filter id="filter2_f_3483_5307" x="-500" y="-72" width="1636.14" height="1707.43" filterUnits="userSpaceOnUse" color-interpolation-filters="sRGB">
<feFlood flood-opacity="0" result="BackgroundImageFix"/>
<feBlend mode="normal" in="SourceGraphic" in2="BackgroundImageFix" result="shape"/>
<feGaussianBlur stdDeviation="250" result="effect1_foregroundBlur_3483_5307"/>
</filter>
<filter id="filter3_f_3483_5307" x="-406" y="-537" width="1635.92" height="1592.9" filterUnits="userSpaceOnUse" color-interpolation-filters="sRGB">
<feFlood flood-opacity="0" result="BackgroundImageFix"/>
<feBlend mode="normal" in="SourceGraphic" in2="BackgroundImageFix" result="shape"/>
<feGaussianBlur stdDeviation="250" result="effect1_foregroundBlur_3483_5307"/>
</filter>
<filter id="filter4_f_3483_5307" x="216" y="-481" width="1540.43" height="1550.24" filterUnits="userSpaceOnUse" color-interpolation-filters="sRGB">
<feFlood flood-opacity="0" result="BackgroundImageFix"/>
<feBlend mode="normal" in="SourceGraphic" in2="BackgroundImageFix" result="shape"/>
<feGaussianBlur stdDeviation="250" result="effect1_foregroundBlur_3483_5307"/>
</filter>
<filter id="filter5_f_3483_5307" x="553" y="-448" width="1563.63" height="1646.24" filterUnits="userSpaceOnUse" color-interpolation-filters="sRGB">
<feFlood flood-opacity="0" result="BackgroundImageFix"/>
<feBlend mode="normal" in="SourceGraphic" in2="BackgroundImageFix" result="shape"/>
<feGaussianBlur stdDeviation="250" result="effect1_foregroundBlur_3483_5307"/>
</filter>
<clipPath id="clip0_3483_5307">
<rect width="1728" height="1117" fill="white" transform="translate(0 -37)"/>
</clipPath>
</defs>
</svg>
