<svg width="877" height="5" viewBox="0 0 877 5" fill="none" xmlns="http://www.w3.org/2000/svg">
<path d="M874 5C875.381 5 876.5 3.88071 876.5 2.5C876.5 1.11929 875.381 0 874 0V5ZM0 5H4.96591V0H0L0 5ZM14.8977 5H24.8295V0H14.8977V5ZM34.7614 5H44.6932V0H34.7614V5ZM54.625 5H64.5568V0H54.625V5ZM74.4886 5H84.4204V0H74.4886V5ZM94.3523 5H104.284V0H94.3523V5ZM114.216 5H124.148V0H114.216V5ZM134.08 5H144.011V0H134.08V5ZM153.943 5H163.875V0H153.943V5ZM173.807 5H183.739V0H173.807V5ZM193.67 5H203.602V0H193.67V5ZM213.534 5H223.466V0H213.534V5ZM233.398 5H243.33V0H233.398V5ZM253.261 5H263.193V0H253.261V5ZM273.125 5H283.057V0H273.125V5ZM292.989 5H302.921V0H292.989V5ZM312.852 5H322.784V0H312.852V5ZM332.716 5H342.648V0H332.716V5ZM352.58 5H362.511V0H352.58V5ZM372.443 5H382.375V0H372.443V5ZM392.307 5H402.239V0H392.307V5ZM412.171 5H422.102V0H412.171V5ZM432.034 5H441.966V0H432.034V5ZM451.898 5H461.83V0H451.898V5ZM471.762 5H481.693V0H471.762V5ZM491.625 5H501.557V0H491.625V5ZM511.489 5H521.421V0H511.489V5ZM531.352 5H541.284V0H531.352V5ZM551.216 5H561.148V0H551.216V5ZM571.08 5H581.012V0H571.08V5ZM590.943 5H600.875V0H590.943V5ZM610.807 5H620.739V0H610.807V5ZM630.671 5H640.603V0H630.671V5ZM650.534 5H660.466V0H650.534V5ZM670.398 5H680.33V0H670.398V5ZM690.262 5H700.194V0H690.262V5ZM710.125 5H720.057V0H710.125V5ZM729.989 5H739.921V0H729.989V5ZM749.853 5H759.784V0H749.853V5ZM769.716 5H779.648V0H769.716V5ZM789.58 5H799.512V0H789.58V5ZM809.444 5H819.375V0H809.444V5ZM829.307 5H839.239V0H829.307V5ZM849.171 5H859.103V0H849.171V5ZM869.034 5H874V0H869.034V5Z" fill="#D1D5DB"/>
</svg>
